<?xml version="1.0" encoding="UTF-8"?>
<svg id="Camada_2" data-name="Camada 2" xmlns="http://www.w3.org/2000/svg" viewBox="0 0 168.15 168.16">
  <defs>
    <style>
      .cls-1 {
        stroke-width: 0px;
      }
    </style>
  </defs>
  <g id="Camada_1-2" data-name="Camada 1">
    <g>
      <path class="cls-1" d="m168.15,84.37c-.14,46.09-38.24,83.92-84.37,83.79C37.66,168.03-.14,129.97,0,83.8.14,37.75,38.29-.14,84.37,0c46.13.14,83.92,38.2,83.78,84.37Zm-58.32-.66c-.07-14.01-11.95-25.56-26.1-25.37-14.11.18-25.59,11.98-25.4,26.11.19,14.14,11.94,25.57,26.11,25.38,14.14-.18,25.47-11.84,25.4-26.12Zm41.64,41.92c-.02-2.51-2.01-3.06-3.52-3.94-10.08-5.84-20.22-11.59-30.29-17.45-7.52-4.37-7.48-4.43-13.48,1.31-.6.58-1.17,1.23-1.88,1.64-2.73,1.58-2.34,3.36-.92,5.77,6.93,11.77,13.8,23.57,20.45,35.49,1.89,3.39,3.58,3.63,6.6,1.54,8.75-6.05,16.04-13.48,21.94-22.3.46-.68.78-1.46,1.1-2.06Zm-93.62-57.56c1.33.09,1.91-.5,2.41-1.18,1.88-2.57,4.05-4.86,6.62-6.74,1.91-1.4,1.09-2.81.22-4.32-7-12.09-14.05-24.16-20.94-36.31-1.76-3.11-3.53-3.32-6.36-1.37-8.46,5.84-15.48,13.03-21.44,21.37-2.4,3.36-1.69,5.07,1.7,6.98,11.74,6.6,23.36,13.43,35.03,20.15,1,.58,2.05,1.06,2.76,1.43Z"/>
      <path class="cls-1" d="m96.31,84.04c.02,6.89-5.41,12.31-12.29,12.27-6.81-.03-12.28-5.62-12.17-12.44.11-6.62,5.46-11.94,12.09-12.02,6.88-.08,12.36,5.31,12.38,12.19Z"/>
    </g>
  </g>
</svg>