<?xml version="1.0" encoding="UTF-8"?>
<svg id="Camada_2" data-name="Camada 2" xmlns="http://www.w3.org/2000/svg" viewBox="0 0 216.45 224.21">
  <defs>
    <style>
      .cls-1 {
        stroke-width: 0px;
      }
    </style>
  </defs>
  <g id="Camada_1-2" data-name="Camada 1">
    <path class="cls-1" d="m14.72,157.15h37.22v7.17h7.6v7.47h7.47V29.98h29.79v-7.48h30.04v-7.46h29.86v-7.65h29.86V0h29.9v171.84h-7.2v7.47h-7.43v7.43h-7.4v7.43h-37.52v-7.25h-7.46v-7.37h-7.41v-37.61h7.28v-7.41h7.36v-7.25h37.54v7.15h7.39v7.24h7.37V15.19h-22.28v7.13h-29.86v7.47h-29.71v7.48h-30.14v7.52h-22.45v156.98h-7.33v7.39h-7.49v7.68h-7.66v7.37H14.86v-7.25h-7.62v-7.61H0v-37.29h7.2v-7.55h7.53v-7.35Z"/>
  </g>
</svg>