<?xml version="1.0" encoding="UTF-8"?>
<svg id="Camada_2" data-name="Camada 2" xmlns="http://www.w3.org/2000/svg" viewBox="0 0 256.4 220.33">
  <defs>
    <style>
      .cls-1 {
        stroke-width: 0px;
      }
    </style>
  </defs>
  <g id="Camada_1-2" data-name="Camada 1">
    <g>
      <path class="cls-1" d="m33.15,59.8c-5.62-4.81-11.25-9.61-16.86-14.43-1.64-1.41-3.36-2.76-4.84-4.32-3.79-3.96-3.96-7.37-.74-11.01,3.08-3.48,7.05-3.99,11.11-.72,9.86,7.93,19.53,16.1,29.26,24.2,23.28,19.39,46.58,38.77,69.82,58.2,19.29,16.12,38.54,32.29,57.74,48.52,3.02,2.55,6.26,5.19,5.14,10.04-1.36,5.88-6.63,8.35-11.85,5.28-4.18-2.46-7.62-5.91-11.24-9.11-1.04-.92-2.22-2.58-3.81-1.66-1.23.71-.69,2.44-.7,3.73-.04,10.67.03,21.33-.07,32-.03,2.98-.25,6.01-.81,8.93-2.11,10.9-11.82,14.32-20.24,6.99-12.31-10.71-24.41-21.67-36.59-32.53-22-19.62-43.99-39.26-65.99-58.87-.32-.28-.79-.4-2.2-1.07,5.9,8.64,11.22,16.42,16.55,24.2.73,1.07,2.12,2,1.57,3.46-.65,1.74-2.44,1.52-3.89,1.52-9.67.03-19.34.25-28.99-.06-9.6-.32-15.22-5.91-15.33-15.54-.23-20.49-.23-41,.01-61.49.11-9.37,6.29-14.89,15.79-14.99,5.58-.06,11.16-.01,16.74-.01l.43-1.24Z"/>
      <path class="cls-1" d="m137.13,14.4c-19.33,15.65-37.96,30.7-56.53,45.82-2.09,1.71-3.8,3-6.53,1.01-4.5-3.27-4.72-4.65-.38-8.17,19.77-16.04,39.56-32.07,59.38-48.05,1.8-1.45,3.79-2.78,5.88-3.73,7.22-3.27,13.93-.08,15.96,7.56.9,3.38,1.25,6.86,1.24,10.38-.03,33.97-.02,67.94-.02,101.91,0,1,.02,2-.04,3-.25,3.75-1.76,4.41-4.67,1.95-9.04-7.61-18.11-15.18-27.15-22.78-13.89-11.67-27.79-23.32-41.64-35.04-4.34-3.68-4.28-4.37.71-6.75,16.07-7.66,32.12-15.38,48.35-22.71,4.61-2.08,6.88-4.63,6.35-9.79-.46-4.58.39-9.27-.91-14.6Z"/>
      <path class="cls-1" d="m164.28,104.76c0-9.31-.07-18.63.03-27.94.05-5,1.13-5.79,5.67-3.93,14.04,5.74,22.87,16.17,25.08,31.1,2.42,16.4-3.74,29.62-17.4,39.25-2.32,1.64-4.07,1.27-6.25-.35-4.99-3.7-7.82-7.97-7.28-14.69.63-7.77.15-15.62.15-23.44Zm21.24-4.96c-1.86-7.72-6.64-13.17-12.75-17.62-.8-.58-2-1.28-2.16.41-.22,2.25-.89,4.96,1.36,6.46,4.81,3.2,9.02,7.08,13.55,10.75Z"/>
    </g>
    <g>
      <path class="cls-1" d="m166.19,109.59c0-11,.11-21.99-.05-32.99-.07-4.4,1.36-5.14,5.34-3.6,14.51,5.64,24.89,20.04,25.2,35.39.35,17.27-8.77,31.84-23.9,38.18-5.63,2.36-6.56,1.75-6.58-4.49-.03-10.83,0-21.66,0-32.49Zm21.59-8c-2.19-7.48-6.24-13.58-12.41-18.18-.77-.58-1.54-1.53-2.6-1.05-1.31.6-.97,1.97-1,3.09-.04,1.77.51,3.32,2.1,4.25,5.35,3.14,9.42,7.72,13.91,11.89Z"/>
      <path class="cls-1" d="m256.4,109.93c-2.41,38.53-18.6,68.61-53.2,87.48-1.2.66-2.78,2.39-3.91.69-1.31-1.98,1.05-2.84,2.27-3.71,11.82-8.4,21.74-18.6,29.32-30.99,11.28-18.44,16.83-38.64,15.01-60.07-2.71-31.84-17.13-57.68-43.18-76.7-1.49-1.08-4.62-2.23-3.41-4.16,1.6-2.55,3.78.24,5.44,1.18,30.79,17.35,47.06,44.11,50.9,78.88.27,2.48.52,4.97.77,7.4Z"/>
      <path class="cls-1" d="m223.7,114.96c-1.05,22.02-12.55,42.45-36.34,55.42-1.18.64-2.77,2.36-3.85.52-.97-1.64,1.03-2.49,2.19-3.37,25.4-19.42,35.26-47.79,26.48-77.9-4.21-14.43-12.48-26.41-24.58-35.57-.53-.4-1.15-.71-1.61-1.18-1.06-1.09-3.57-1.79-2.26-3.71,1.06-1.55,2.71.09,3.95.76,22.69,12.23,36.08,34.68,36.04,65.04Z"/>
    </g>
  </g>
</svg>