<?xml version="1.0" encoding="UTF-8"?>
<svg id="Camada_2" data-name="Camada 2" xmlns="http://www.w3.org/2000/svg" viewBox="0 0 244.74 234.2">
  <defs>
    <style>
      .cls-1 {
        stroke-width: 0px;
      }
    </style>
  </defs>
  <g id="Camada_1-2" data-name="Camada 1">
    <g>
      <path class="cls-1" d="m244.74,234.09c-3.21.03-6.41.04-9.62.1-1.05.02-1.12-.61-1.12-1.4,0-3.07,0-6.13,0-9.2.08-.08.16-.16.24-.24,3.5.03,7,.07,10.5.1v10.63Z"/>
      <path class="cls-1" d="m106.58,106.61c0,41.58,0,83.16,0,124.74,0,.53-.03,1.06,0,1.58.06.93-.34,1.27-1.26,1.26-6.32-.02-12.65-.02-18.97,0-.94,0-1.26-.38-1.25-1.29.03-2.68-.02-5.37.02-8.05.02-1.01-.36-1.34-1.34-1.32-2.63.05-5.27-.02-7.9.03-1.06.02-1.44-.36-1.42-1.42.05-2.63-.02-5.27.03-7.9.02-.99-.31-1.36-1.32-1.35-2.59.05-5.17-.03-7.76.03-1.16.03-1.62-.33-1.59-1.54.07-2.44-.05-4.89.05-7.33.05-1.35-.31-1.88-1.75-1.81-2.39.11-4.79-.05-7.18.06-1.43.06-1.81-.48-1.76-1.82.09-2.44-.03-4.89.05-7.33.04-1.22-.41-1.57-1.58-1.54-2.54.07-5.08-.02-7.62.04-1.14.03-1.51-.39-1.48-1.5.06-2.59-.02-5.17.03-7.76.02-1.07-.34-1.43-1.41-1.41-2.59.06-5.17-.02-7.76.04-1.11.02-1.53-.34-1.5-1.48.06-2.54-.03-5.08.04-7.62.03-1.17-.32-1.62-1.54-1.58-2.44.08-4.89-.04-7.33.05-1.35.05-1.88-.33-1.82-1.76.1-2.39-.05-4.79.06-7.18.07-1.44-.47-1.76-1.81-1.75-5.89.06-11.78-.02-17.68.06-1.49.02-1.84-.47-1.84-1.89.04-27.16.03-54.32.03-81.48,0-1.93,0-1.94,2.01-1.94,5.84,0,11.69-.04,17.53.03,1.42.02,1.8-.46,1.75-1.81-.09-2.49.01-4.98-.04-7.47-.02-1.08.4-1.42,1.43-1.4,2.63.05,5.27-.02,7.9.03,1.01.02,1.35-.35,1.33-1.34-.05-2.59.03-5.17-.03-7.76-.03-1.18.37-1.58,1.56-1.57,6.56.04,13.13.02,19.69.02.09.08.17.15.26.23,0,2.91.04,5.82-.05,8.73-.04,1.3.34,1.74,1.68,1.72,2.95-.04,5.91-.18,8.86.09.27,2.99.1,5.99.09,8.99,0,1.18.37,1.55,1.55,1.55,2.99,0,5.99-.18,8.99.09.28,3,.1,6,.1,9,0,1.2.4,1.56,1.57,1.54,2.96-.07,5.91-.04,8.87-.04.08.08.17.16.25.24,0,3.01.02,6.02-.04,9.03-.02,1.06.34,1.43,1.4,1.41,3.01-.06,6.02-.03,9.03-.04.08.08.17.16.25.24,0,3.01.02,6.02-.04,9.03-.02,1.06.34,1.43,1.4,1.41,3.01-.06,6.02-.03,9.03-.04.08.09.15.17.23.26Z"/>
      <path class="cls-1" d="m63.84,42.52c0-6.51.03-13.03-.02-19.54-.01-1.32.41-1.75,1.72-1.71,2.54.08,5.08,0,7.62.04.99.02,1.36-.32,1.34-1.33-.05-2.59.03-5.17-.03-7.76-.03-1.17.34-1.62,1.55-1.58,2.49.07,4.98-.04,7.47.04,1.23.04,1.71-.3,1.66-1.6-.09-2.49.02-4.98-.05-7.47-.03-1.15.3-1.61,1.53-1.6,6.13.05,12.26.06,18.39,0,1.33-.01,1.59.51,1.58,1.7-.04,8.33-.02,16.67-.02,25,0,15.33,0,30.66,0,45.99,0,1.97,0,1.98-1.97,1.98-2.87,0-5.75,0-8.62,0-.09-.08-.17-.15-.26-.23,0-2.91-.04-5.82.05-8.72.04-1.3-.33-1.74-1.68-1.72-2.95.04-5.91.18-8.86-.09-.28-2.99-.1-5.99-.1-8.99,0-1.18-.36-1.56-1.55-1.55-3,0-5.99.18-8.99-.09-.28-3-.1-6-.1-9,0-1.2-.4-1.56-1.57-1.54-2.96.07-5.91.04-8.87.04-.08-.09-.15-.17-.23-.26Z"/>
      <path class="cls-1" d="m181.07,85.1c2.92,0,5.85.08,8.76-.03,1.46-.05,1.87.42,1.86,1.87-.05,14.41-.03,28.83-.03,43.24,0,5.75-.03,11.49.03,17.24.01,1.32-.4,1.76-1.72,1.71-2.44-.09-4.89-.11-7.33,0-1.48.07-1.85-.45-1.85-1.88.05-15.47.03-30.94.03-46.4,0-5.17,0-10.34,0-15.52.08-.08.16-.16.24-.24Z"/>
      <path class="cls-1" d="m212.73,148.87c0-21.18,0-42.35,0-63.53.08-.08.16-.16.24-.24,2.92,0,5.85.08,8.76-.03,1.46-.05,1.87.42,1.86,1.87-.05,14.46-.03,28.93-.03,43.39,0,5.7-.03,11.4.03,17.1.01,1.32-.4,1.75-1.72,1.71-2.97-.08-5.94-.02-8.91-.02-.08-.08-.16-.16-.24-.24Z"/>
      <path class="cls-1" d="m159.52,10.86c-10.01,0-20.01-.03-30.02.03-1.43,0-1.94-.38-1.88-1.85.11-2.53.07-5.07.02-7.61-.02-1.06.36-1.42,1.42-1.41,9.77.03,19.54.03,29.3,0,1.06,0,1.43.37,1.41,1.42-.04,3.06-.01,6.13,0,9.19-.08.08-.16.16-.24.24Z"/>
      <path class="cls-1" d="m202.34,53.2c2.87,0,5.73,0,8.6,0,1.99,0,1.99,0,2,1.95,0,9.46,0,18.92,0,28.38,0,.53.02,1.05.04,1.58-.08.08-.16.16-.24.24-3.01-.01-6.02-.08-9.03-.01-1.28.03-1.63-.41-1.62-1.65.04-10.08.02-20.16.02-30.24.08-.08.16-.16.24-.24Z"/>
      <path class="cls-1" d="m159.76,223.59c0,3.06-.03,6.13.01,9.19.02,1.05-.36,1.42-1.42,1.42-9.77-.03-19.54-.03-29.3,0-1.06,0-1.44-.36-1.42-1.42.05-2.58.08-5.17-.01-7.76-.05-1.34.44-1.7,1.73-1.7,10.05.04,20.11.02,30.17.02.08.08.16.16.24.24Z"/>
      <path class="cls-1" d="m148.88,42.77c-6.51,0-13.02-.03-19.53.02-1.3.01-1.77-.37-1.72-1.7.09-2.58.06-5.17.01-7.75-.02-1.06.36-1.42,1.42-1.42,6.22.03,12.45.03,18.67,0,1.06,0,1.43.37,1.41,1.42-.04,3.06-.01,6.13,0,9.19-.08.08-.16.16-.24.24Z"/>
      <path class="cls-1" d="m148.88,95.94c-3.02,0-6.04-.05-9.05.02-1.19.02-1.57-.39-1.56-1.57.04-6.56.02-13.12.01-19.68l.24-.24c3.02,0,6.04.05,9.05-.02,1.19-.02,1.57.39,1.56,1.57-.04,6.56-.02,13.12-.01,19.68-.08.08-.16.16-.24.24Z"/>
      <path class="cls-1" d="m170.43,63.83c2.72,0,5.44,0,8.16,0q2.43,0,2.43,2.37c.01,6.3.03,12.6.04,18.9-.08.08-.16.16-.24.24-3.01-.01-6.01-.08-9.02-.01-1.26.03-1.64-.39-1.63-1.64.05-6.54.02-13.08.02-19.62.08-.08.16-.16.24-.24Z"/>
      <path class="cls-1" d="m149.13,95.7c3.01.01,6.02.06,9.04.02,1.13-.02,1.62.27,1.61,1.51-.05,6.17-.04,12.34,0,18.5,0,1.12-.37,1.52-1.49,1.49-2.58-.06-5.17-.08-7.75,0-1.26.04-1.65-.38-1.64-1.64.04-6.55,0-13.1-.02-19.65.08-.08.16-.16.24-.24Z"/>
      <path class="cls-1" d="m149.12,191.69c0,3.06-.03,6.13.01,9.19.02,1.05-.36,1.42-1.41,1.42-6.22-.03-12.45-.03-18.67,0-1.06,0-1.44-.36-1.42-1.42.05-2.63.06-5.27,0-7.9-.03-1.2.41-1.56,1.58-1.55,6.56.04,13.12.02,19.68.01.08.08.16.16.24.24Z"/>
      <path class="cls-1" d="m212.97,149.12c-.01,6.45-.02,12.91-.04,19.36,0,1.89,0,1.9-1.9,1.9-2.53,0-5.07-.03-7.6.01-.99.02-1.34-.35-1.34-1.34.03-6.26.03-12.53,0-18.79,0-1.11.47-1.37,1.47-1.36,3.06.03,6.12-.01,9.18-.03.08.08.16.16.24.24Z"/>
      <path class="cls-1" d="m53.16,53.2c.01-3.46.02-6.93.03-10.39.08-.08.16-.16.24-.24,3.46-.01,6.93-.02,10.39-.04.08.09.15.17.23.26-.13,3.5.14,7-.15,10.49-3.49.29-7,.02-10.49.15-.09-.08-.17-.15-.26-.23Z"/>
      <path class="cls-1" d="m149.13,42.53c3.05.01,6.1.06,9.15.02,1.09-.01,1.52.32,1.5,1.47-.06,3.05-.02,6.1-.01,9.15-.08.08-.16.16-.24.24-3,0-6-.06-9,.02-1.28.03-1.64-.42-1.62-1.65.06-3,0-6-.02-9,.08-.08.16-.16.24-.24Z"/>
      <path class="cls-1" d="m191.7,42.56c3,0,6,.06,9-.02,1.28-.03,1.64.42,1.62,1.65-.06,3,0,6,.02,9-.08.08-.16.16-.24.24-3.05-.01-6.1-.06-9.15-.02-1.09.01-1.52-.32-1.5-1.47.06-3.05.02-6.1.01-9.15.08-.08.16-.16.24-.24Z"/>
      <path class="cls-1" d="m170.19,64.07c-3.05-.01-6.11-.06-9.16-.02-1.12.02-1.5-.37-1.49-1.49.04-3.05,0-6.11-.02-9.16.08-.08.16-.16.24-.24,3.05.01,6.11.06,9.16.02,1.12-.02,1.5.37,1.49,1.49-.04,3.05,0,6.11.02,9.16-.08.08-.16.16-.24.24Z"/>
      <path class="cls-1" d="m138.28,74.71c-3.06-.01-6.11-.05-9.17-.02-.99,0-1.5-.23-1.47-1.35.06-2.72.05-5.45,0-8.17-.02-.99.35-1.35,1.34-1.34,2.67.04,5.35.05,8.03,0,1.11-.02,1.52.34,1.5,1.48-.05,3.06,0,6.11.02,9.17-.08.08-.16.16-.24.24Z"/>
      <path class="cls-1" d="m95.98,74.67c-.01,3.46-.02,6.93-.04,10.39-.08.09-.15.17-.23.26-3.46,0-6.93,0-10.39,0-.08-.08-.17-.16-.25-.24.13-3.5-.14-7,.15-10.49,3.49-.29,6.99-.02,10.49-.14.09.08.17.15.26.23Z"/>
      <path class="cls-1" d="m170.43,21.29c3.06,0,6.13.03,9.19-.01,1.06-.02,1.43.36,1.42,1.42-.04,3.06-.01,6.13,0,9.19-.08.08-.16.16-.24.24-3.06,0-6.13-.03-9.19.01-1.06.02-1.43-.36-1.42-1.42.04-3.06.01-6.13,0-9.19.08-.08.16-.16.24-.24Z"/>
      <path class="cls-1" d="m95.95,85.06c3,.01,6,.08,9,.02,1.23-.02,1.69.34,1.65,1.62-.08,3-.02,6-.02,9-.08.09-.15.17-.23.26-3.46,0-6.93,0-10.39,0-.08-.08-.17-.16-.25-.24,0-3.46,0-6.93,0-10.39.08-.09.15-.17.23-.26Z"/>
      <path class="cls-1" d="m21.26,10.86c-3.06,0-6.13-.03-9.19.01-1.05.02-1.44-.35-1.42-1.41.05-2.68.05-5.36,0-8.04-.02-1.06.36-1.43,1.42-1.41,2.68.05,5.36.05,8.04,0,1.06-.02,1.42.38,1.41,1.42-.04,3.06-.01,6.12,0,9.19-.08.08-.16.16-.24.24Z"/>
      <path class="cls-1" d="m21.5,10.62c3.05.01,6.1.06,9.15.02,1.09-.01,1.52.32,1.5,1.47-.06,3.05-.02,6.1-.01,9.15-.08.08-.16.16-.24.24-3,0-6-.06-9,.02-1.28.03-1.64-.42-1.62-1.65.06-3,0-6-.02-9,.08-.08.16-.16.24-.24Z"/>
      <path class="cls-1" d="m116.98,106.58c-3.46.01-6.93.02-10.39.04-.08-.09-.15-.17-.23-.26,0-3.46,0-6.93,0-10.39.08-.09.15-.17.23-.26,3,.01,6,.08,9,.02,1.23-.02,1.69.34,1.65,1.62-.08,3-.02,6-.02,9l-.24.24Z"/>
      <path class="cls-1" d="m159.76,10.62c3.05.01,6.11.06,9.16.02,1.12-.02,1.5.37,1.49,1.49-.04,3.05,0,6.11.02,9.16-.08.08-.16.16-.24.24-3.05-.01-6.11-.06-9.16-.02-1.12.02-1.5-.37-1.49-1.49.04-3.05,0-6.11-.02-9.16.08-.08.16-.16.24-.24Z"/>
      <path class="cls-1" d="m117.22,106.33c3.05.01,6.1.06,9.15.02,1.09-.01,1.52.32,1.5,1.47-.06,3.05-.02,6.1-.01,9.15-.08.08-.16.16-.24.24-3,0-6-.06-9,.02-1.28.03-1.64-.42-1.62-1.65.06-3,0-6-.02-9,.08-.08.16-.16.24-.24Z"/>
      <path class="cls-1" d="m138.25,127.85c-3,0-6-.06-9,.02-1.28.03-1.64-.42-1.62-1.65.06-3,0-6-.02-9,.08-.08.16-.16.24-.24,3.05.01,6.1.06,9.15.02,1.09-.01,1.52.32,1.5,1.47-.06,3.05-.02,6.1-.01,9.15l-.24.24Z"/>
      <path class="cls-1" d="m138.49,127.6c3.05.01,6.1.06,9.15.02,1.09-.01,1.52.32,1.5,1.47-.06,3.05-.02,6.1-.01,9.15-.08.08-.16.16-.24.24-3,0-6-.06-9,.02-1.28.03-1.64-.42-1.62-1.65.06-3,0-6-.02-9,.08-.08.16-.16.24-.24Z"/>
      <path class="cls-1" d="m149.13,138.24c3.05.01,6.1.06,9.15.02,1.09-.01,1.52.32,1.5,1.47-.06,3.05-.02,6.1-.01,9.15-.08.08-.16.16-.24.24-3,0-6-.06-9,.02-1.28.03-1.64-.42-1.62-1.65.06-3,0-6-.02-9,.08-.08.16-.16.24-.24Z"/>
      <path class="cls-1" d="m42.53,32.13c-3,0-6-.06-9,.02-1.28.03-1.64-.42-1.62-1.65.06-3,0-6-.02-9,.08-.08.16-.16.24-.24,3.05.01,6.1.06,9.15.02,1.09-.01,1.52.32,1.5,1.47-.06,3.05-.02,6.1-.01,9.15-.08.08-.16.16-.24.24Z"/>
      <path class="cls-1" d="m53.2,42.8c-3.05-.01-6.11-.06-9.16-.02-1.12.02-1.5-.37-1.49-1.49.04-3.05,0-6.11-.02-9.16.08-.08.16-.16.24-.24,3.05.01,6.11.06,9.16.02,1.12-.02,1.5.37,1.49,1.49-.04,3.05,0,6.11.02,9.16-.08.08-.16.16-.24.24Z"/>
      <path class="cls-1" d="m138.48,165.01c0,1.34-.04,2.68.01,4.02.03.97-.3,1.38-1.31,1.36-2.73-.04-5.45-.04-8.18,0-.96.01-1.38-.3-1.36-1.32.04-2.73.04-5.45,0-8.18-.01-.96.3-1.38,1.32-1.36,2.73.04,5.45.05,8.18,0,1.11-.02,1.4.46,1.36,1.46-.05,1.34-.01,2.68-.01,4.02Z"/>
      <path class="cls-1" d="m170.43,159.54c3.06,0,6.13.03,9.19-.01,1.06-.02,1.43.36,1.42,1.42-.04,3.06-.01,6.13,0,9.19-.08.08-.16.16-.24.24-3.06,0-6.13-.03-9.19.01-1.06.02-1.43-.36-1.42-1.42.04-3.06.01-6.13,0-9.19.08-.08.16-.16.24-.24Z"/>
      <path class="cls-1" d="m181.03,170.14c3.05.01,6.1.06,9.15.02,1.09-.01,1.52.32,1.5,1.47-.06,3.05-.02,6.1-.01,9.15-.08.08-.16.16-.24.24-3,0-6-.06-9,.02-1.28.03-1.64-.42-1.62-1.65.06-3,0-6-.02-9,.08-.08.16-.16.24-.24Z"/>
      <path class="cls-1" d="m148.88,191.44c.01-3.06.05-6.11.02-9.17,0-.99.23-1.5,1.35-1.47,2.72.06,5.45.05,8.17,0,.99-.02,1.35.35,1.34,1.34-.04,2.67-.05,5.35,0,8.02.02,1.11-.34,1.52-1.48,1.5-3.06-.05-6.11,0-9.17.02-.08-.08-.16-.16-.24-.24Z"/>
      <path class="cls-1" d="m191.67,180.78c3.05.01,6.1.06,9.15.02,1.09-.01,1.52.32,1.5,1.47-.06,3.05-.02,6.1-.01,9.15-.08.08-.16.16-.24.24-3,0-6-.06-9,.02-1.28.03-1.64-.42-1.62-1.65.06-3,0-6-.02-9,.08-.08.16-.16.24-.24Z"/>
      <path class="cls-1" d="m159.76,148.87c3.05.01,6.11.06,9.16.02,1.12-.02,1.5.37,1.49,1.49-.04,3.05,0,6.11.02,9.16-.08.08-.16.16-.24.24-3.05-.01-6.11-.06-9.16-.02-1.12.02-1.5-.37-1.49-1.49.04-3.05,0-6.11-.02-9.16.08-.08.16-.16.24-.24Z"/>
      <path class="cls-1" d="m212.69,202.29c-3,0-6-.06-9,.02-1.28.03-1.64-.42-1.62-1.65.06-3,0-6-.02-9,.08-.08.16-.16.24-.24,3.05.01,6.1.06,9.15.02,1.09-.01,1.52.32,1.5,1.47-.06,3.05-.02,6.1-.01,9.15-.08.08-.16.16-.24.24Z"/>
      <path class="cls-1" d="m170.19,212.68c0-3.06.03-6.13-.01-9.19-.02-1.05.35-1.44,1.41-1.42,2.68.05,5.36.05,8.04,0,1.06-.02,1.43.36,1.42,1.42-.05,2.68-.05,5.36,0,8.04.02,1.06-.38,1.42-1.42,1.41-3.06-.04-6.13-.01-9.19,0-.08-.08-.16-.16-.24-.24Z"/>
      <path class="cls-1" d="m212.94,202.05c3.05.01,6.1.06,9.15.02,1.09-.01,1.52.32,1.5,1.47-.06,3.05-.02,6.1-.01,9.15-.08.08-.16.16-.24.24-3,0-6-.06-9,.02-1.28.03-1.64-.42-1.62-1.65.06-3,0-6-.02-9,.08-.08.16-.16.24-.24Z"/>
      <path class="cls-1" d="m159.52,223.35c.01-3.05.06-6.11.02-9.16-.02-1.12.37-1.5,1.49-1.49,3.05.04,6.11,0,9.16-.02.08.08.16.16.24.24-.01,3.05-.06,6.11-.02,9.16.02,1.12-.37,1.5-1.49,1.49-3.05-.04-6.11,0-9.16.02-.08-.08-.16-.16-.24-.24Z"/>
      <path class="cls-1" d="m223.57,212.68c3.05.01,6.11.06,9.16.02,1.12-.02,1.5.37,1.49,1.49-.04,3.05,0,6.11.02,9.16-.08.08-.16.16-.24.24-3.05-.01-6.11-.06-9.16-.02-1.12.02-1.5-.37-1.49-1.49.04-3.05,0-6.11-.02-9.16.08-.08.16-.16.24-.24Z"/>
      <path class="cls-1" d="m181.03,31.89c3.05.01,6.11.06,9.16.02,1.12-.02,1.5.37,1.49,1.49-.04,3.05,0,6.11.02,9.16-.08.08-.16.16-.24.24-3.05-.01-6.11-.06-9.16-.02-1.12.02-1.5-.37-1.49-1.49.04-3.05,0-6.11-.02-9.16.08-.08.16-.16.24-.24Z"/>
      <path class="cls-1" d="m74.55,53.32c.2,3.53.2,7.06,0,10.59-3.53.2-7.06.2-10.6,0-.2-3.53-.2-7.06,0-10.59,3.53-.2,7.06-.2,10.6,0Z"/>
      <path class="cls-1" d="m85.19,63.95c.2,3.53.2,7.06,0,10.59-3.53.2-7.06.2-10.6,0-.2-3.53-.2-7.06,0-10.59,3.53-.2,7.06-.2,10.6,0Z"/>
    </g>
  </g>
</svg>