<?xml version="1.0" encoding="UTF-8"?>
<svg id="Camada_2" data-name="Camada 2" xmlns="http://www.w3.org/2000/svg" viewBox="0 0 223.6 234.21">
  <defs>
    <style>
      .cls-1 {
        stroke-width: 0px;
      }
    </style>
  </defs>
  <g id="Camada_1-2" data-name="Camada 1">
    <g>
      <g>
        <path class="cls-1" d="m.03,157.8c0,.3,0,.55.01.76-.03-.19-.04-.42-.04-.67.02-13.6.03-27.19.03-40.78v40.69Z"/>
        <path class="cls-1" d="m1.12,74.48c-.68.11-.98.46-1.08,1.15.03-.9.21-1.1,1.08-1.15Z"/>
        <path class="cls-1" d="m2.05,159.74c1,0,2,0,3.01.01-1.07,0-2.15.02-3.22.03-.28,0-.52,0-.72-.05.25.01.55.01.93.01Z"/>
        <path class="cls-1" d="m19.58,159.71c.16,0,.3,0,.43.02-.15-.01-.31-.01-.49-.01-.6.01-1.21.01-1.81.01.62,0,1.25-.01,1.87-.02Z"/>
        <path class="cls-1" d="m21.3,167.71c0,.43,0,.85,0,1.28,0,.12,0,.24,0,.34-.03-.19-.04-.42-.03-.68.01-.31.02-.63.03-.94Z"/>
        <path class="cls-1" d="m21.29,70.15c0-1.09,0-2.17,0-3.26.02,1.09,0,2.18,0,3.26Z"/>
        <path class="cls-1" d="m21.29,73.5c.04-.22.05-.46.04-.75.01.3,0,.54-.04.75Z"/>
        <path class="cls-1" d="m22.48,63.83c-.7.07-1.07.37-1.18,1.05.06-.73.42-1.02,1.18-1.05Z"/>
        <path class="cls-1" d="m22.72,170.39c.5-.01.99-.01,1.49-.01-.37.01-.74.01-1.11.03-.26.01-.49,0-.69-.03.09.01.2.01.31.01Z"/>
        <path class="cls-1" d="m26.85,170.38c1.09,0,2.18,0,3.27-.02-1.09.04-2.18.03-3.27.02Z"/>
        <path class="cls-1" d="m31.94,171.44c-.08-.74-.44-1.06-1.31-1.08.91-.02,1.27.28,1.31,1.08Z"/>
        <path class="cls-1" d="m31.95,62.51c-.01-.58-.01-1.16-.01-1.75,0,.51.01,1.01.02,1.52,0,.08,0,.16-.01.23Z"/>
        <path class="cls-1" d="m33.48,181.03h1.15c-.4,0-.8,0-1.21.01-.97.02-1.41-.25-1.48-1.09.09.81.53,1.09,1.54,1.08Z"/>
        <path class="cls-1" d="m37.71,53.19c-1.41.01-2.82.02-4.23-.01,1.41.01,2.82.02,4.23.01Z"/>
        <path class="cls-1" d="m63.83,27.24c.01-1.42,0-2.84-.01-4.26.05,1.42.02,2.84.01,4.26Z"/>
        <path class="cls-1" d="m63.84,29.05c.01.37.02.74.03,1.1.01.23.01.43-.02.62,0-.57,0-1.15-.01-1.72Z"/>
        <path class="cls-1" d="m85.11,9.66c-.04.64-.33.93-.93.99.56-.09.85-.38.93-.99Z"/>
        <path class="cls-1" d="m85.11,5.05c0,1.11,0,2.23.01,3.34-.03-1.11-.02-2.23-.01-3.34Z"/>
        <path class="cls-1" d="m85.11,1.3c.01.59.01,1.18.01,1.78,0-.49-.01-.98-.02-1.47,0-.11,0-.21,0-.31Z"/>
        <path class="cls-1" d="m86.62.01c.63,0,1.25.01,1.88.01h-2.12c.08-.01.16-.01.24-.01Z"/>
        <path class="cls-1" d="m105.02,0c.17,0,.33.01.47.02h-.17c-.99,0-1.97,0-2.96,0,.89,0,1.77-.01,2.66-.02Z"/>
        <path class="cls-1" d="m106.58,15.92V2.86c0-.53-.03-1.06.01-1.58.01.13.01.27.01.42-.02,4.74-.02,9.47-.02,14.22Z"/>
        <path class="cls-1" d="m180.8,147.27c.03-8.59.03-17.19.03-25.78v26.35c-.02-.17-.03-.36-.03-.57Z"/>
        <path class="cls-1" d="m181.9,85.1c-.72.12-1,.54-1.07,1.35v-1.11c.08-.08.16-.16.24-.24h.83Z"/>
        <path class="cls-1" d="m181.89,149.12c.63,0,1.25-.01,1.88-.01-.38.01-.75.02-1.12.04-.3,0-.55,0-.76-.03Z"/>
        <path class="cls-1" d="m189.83,85.08c-1.99.08-3.98.1-5.97.03,1.99.02,3.99.04,5.97-.03Z"/>
        <path class="cls-1" d="m191.58,148.32c-.09.34-.28.56-.58.67.29-.13.47-.35.58-.67Z"/>
        <path class="cls-1" d="m191.67,110.97v-6.94c0-5.74-.04-11.49.02-17.24.01.05.01.1.01.15-.03,8.01-.03,16.02-.03,24.03Z"/>
        <path class="cls-1" d="m221.39,149.13c-1.9-.04-3.79-.03-5.69-.02,1.9-.02,3.8-.04,5.69.02Z"/>
        <path class="cls-1" d="m223.56,147.99c-.07.67-.37,1-.99,1.1.6-.12.89-.45.99-1.1Z"/>
        <path class="cls-1" d="m223.57,103.89c0-5.65-.03-11.3.03-16.95-.03,8.03-.03,16.07-.03,24.11v-7.16Z"/>
        <path class="cls-1" d="m159.52,223.35c.08.08.16.17.24.25,0,1.84-.01,3.68-.01,5.51,0,.61.01,1.23.01,1.84s.01,1.23.02,1.84c0,.15-.01.29-.03.42-.02.21-.08.38-.16.52-.15.27-.42.41-.84.45-.12.02-.25.03-.39.03-2.45-.01-4.89-.02-7.33-.01-4.88-.02-9.76-.02-14.65,0-2.44-.01-4.88,0-7.32,0-.14,0-.27,0-.39-.02-.1-.01-.2-.03-.29-.05-.34-.09-.56-.29-.66-.63-.03-.09-.05-.18-.06-.29-.02-.13-.02-.27-.02-.42.01-.73.03-1.45.04-2.18.02-1.67.03-3.34-.04-5,0-.14,0-.29-.01-.43v-.15c-.01-.21,0-.4.02-.57v-.02c.02-.11.04-.2.07-.29.01-.02.01-.03.01-.04.17-.45.51-.66,1.06-.74.07-.01.14-.02.21-.02.15-.02.32-.02.5-.02,10.01.05,20.02.02,30.02.02Z"/>
        <path class="cls-1" d="m170.43,212.93h.01c-.02,3.06-.07,6.1-.02,9.15,0,.17-.01.32-.03.45-.02.22-.07.4-.16.54-.07.14-.18.25-.32.32-.14.09-.32.14-.54.16-.13.02-.28.02-.44.02-3.05-.04-6.11.01-9.16.02-.08-.08-.16-.16-.25-.24.02-3.05.07-6.11.02-9.16,0-.16,0-.31.03-.44.04-.32.13-.56.29-.73.23-.23.61-.33,1.17-.32,3.06.05,6.11,0,9.16-.02.08.09.16.17.24.25Z"/>
        <path class="cls-1" d="m181.03,205.15c-.01,2.12-.01,4.24.02,6.37.01.71-.16,1.12-.6,1.3-.05.02-.1.04-.15.05-.19.05-.41.07-.67.07-1.39-.02-2.78-.03-4.18-.03-1.67,0-3.34.02-5.01.02h0c-.08-.09-.16-.17-.25-.25.01-3.06.04-6.13-.01-9.19,0-.26.02-.48.07-.67.01-.05.03-.1.05-.15.18-.44.58-.61,1.3-.6,2.12.04,4.24.05,6.36.02h.43c.52,0,1.03,0,1.54,0,.79.05,1.09.43,1.11,1.27,0,.6-.01,1.2-.01,1.8Z"/>
        <path class="cls-1" d="m223.6,86.94c-.06,5.65-.03,11.3-.03,16.95v14.46c0,9.65,0,19.29.03,28.93v.15c0,.21-.02.4-.04.56-.1.65-.39.98-.99,1.1-.06.01-.12.02-.19.03-.19.02-.4.03-.64.02-.12,0-.23-.01-.35-.01-1.89-.06-3.79-.04-5.69-.02-.9,0-1.81.01-2.72.01h-.01v.42c-.01,6.31-.02,12.63-.03,18.94v10.59c0,1.94-.01,1.94-2,1.95h-8.6c-.01,3-.07,6-.01,9,.02,1.23-.34,1.69-1.62,1.66-3-.08-6-.03-9-.02-.02,3.05-.07,6.1-.02,9.16.01,1.12-.37,1.5-1.49,1.48-3.05-.04-6.11.01-9.16.02-.08-.08-.16-.16-.24-.24.01-3.05.06-6.11.02-9.16-.02-1.12.36-1.5,1.48-1.49,3.06.05,6.11,0,9.16-.02.01-3.05.05-6.09-.01-9.14-.02-1.15.41-1.48,1.5-1.47,3.05.04,6.1-.01,9.15-.02,0-3.8,0-7.59,0-11.39v-.04c0-2.27,0-4.53,0-6.8.02-4.07,0-8.14-.01-12.22,0-.07,0-.14.01-.21.06-.76.35-1.12,1.09-1.21h.04c.1,0,.21,0,.32,0,.64,0,1.29,0,1.92,0,.17.01.33.01.5,0,1.12.01,2.25.01,3.38,0,1.13,0,2.26-.02,3.38-.02v-63.54c-3.01,0-6.02-.08-9.03,0-1.27.03-1.63-.41-1.62-1.65.04-10.08.02-20.16.02-30.24-3.05-.01-6.1-.06-9.15-.02-1.09.01-1.52-.32-1.5-1.47.06-3.05.01-6.1.01-9.14-3.05-.02-6.11-.07-9.16-.02-1.12.01-1.5-.37-1.49-1.49.05-3.05,0-6.11-.02-9.16-3.06,0-6.13-.04-9.19.01-1.06,0-1.43-.36-1.42-1.42.05-3.06.01-6.13.01-9.19-3.05-.02-6.11-.07-9.16-.02-1.12,0-1.5-.37-1.49-1.49.05-3.05-.01-6.11-.02-9.16-10.01,0-20.01-.03-30.02.02-1.43.01-1.94-.37-1.88-1.85.12-2.53.07-5.07.02-7.61-.02-1.06.36-1.42,1.42-1.41,9.77.02,19.53.02,29.3,0,1.06-.01,1.43.36,1.41,1.41-.04,3.07-.01,6.13,0,9.2,3.05.01,6.1.06,9.16.02,1.12-.02,1.5.36,1.48,1.48-.04,3.06.01,6.11.02,9.17,3.07,0,6.13.03,9.2-.02,1.06,0,1.43.37,1.42,1.42-.05,3.07-.02,6.13,0,9.2,3.05,0,6.1.06,9.16.02,1.12-.02,1.5.36,1.48,1.48-.04,3.06.01,6.11.03,9.16,3,.01,6,.06,9-.02,1.28-.03,1.64.43,1.61,1.66-.06,3,.01,6,.02,9h8.6q1.99.01,1.99,1.95c.01,9.46.01,18.92.01,28.38,0,.52.02,1.05.04,1.57.9,0,1.81.01,2.71.01,1.9.02,3.8.04,5.7-.02.16,0,.33,0,.49,0,.18-.01.35,0,.5.02.07.01.13.02.19.03.6.12.89.45.99,1.1.01.06.01.13.02.2.01.11.02.23.02.36v.15Z"/>
        <path class="cls-1" d="m127.64,225.61c.07,1.66.06,3.33.04,5,.02-1.66.02-3.33-.04-5Z"/>
        <path class="cls-1" d="m128.79,223.37c-.55.08-.89.29-1.06.74.15-.46.48-.67,1.06-.74Z"/>
        <path class="cls-1" d="m136.38,234.2c-2.44-.01-4.88,0-7.32.01-.14,0-.27-.01-.39-.03.12.02.25.02.39.02,2.44,0,4.88-.01,7.32,0Z"/>
        <path class="cls-1" d="m159.13,117.11c-.21.09-.49.13-.84.12-2.58-.06-5.17-.08-7.75,0-.39.01-.7-.02-.94-.11.24-.11.55-.14.95-.13,2.57.08,5.16.06,7.74,0,.35-.01.63.02.84.12Z"/>
        <path class="cls-1" d="m127.67,194.97c.03,1.96,0,3.92-.03,5.87.04-1.96.05-3.92.03-5.87Z"/>
        <path class="cls-1" d="m128.89,191.45c-.77.07-1.15.38-1.24,1.12.07-.77.44-1.07,1.24-1.12Z"/>
        <path class="cls-1" d="m202.1,162.55c0,2.27,0,4.53,0,6.8-.02-.09-.02-.19-.02-.3.01-2.17.02-4.33.01-6.5Z"/>
        <path class="cls-1" d="m203.19,148.91c-.74.09-1.03.45-1.09,1.21.02-.86.37-1.15,1.09-1.21Z"/>
        <path class="cls-1" d="m158.29,117.23c.35.01.63-.03.84-.12.48.17.66.6.65,1.37-.04,6.17-.05,12.34,0,18.5.01,1.25-.48,1.53-1.61,1.52-3.01-.05-6.02,0-9.04.02,0,6.56-.02,13.12.02,19.68.01,1.18-.38,1.59-1.57,1.57-3.01-.07-6.03-.02-9.05-.02-.01,3.06-.07,6.12-.02,9.17,0,.08,0,.16-.01.23,0,.08,0,.17-.02.24-.09.73-.48.99-1.3,1.01h-.49c-2.56-.05-5.12-.04-7.68-.01h-.02c-.18,0-.33,0-.47-.03-.07-.01-.13-.02-.19-.04-.24-.07-.41-.19-.52-.39-.12-.21-.17-.49-.16-.87.04-2.73.05-5.44-.01-8.16h0c0-.14,0-.26.02-.36,0-.06.01-.13.03-.18,0-.05.02-.11.03-.15.03-.08.06-.15.09-.21.02-.03.04-.07.06-.09.03-.04.06-.07.11-.1,0-.02.03-.04.05-.05.04-.03.08-.06.13-.08.03-.01.06-.03.09-.03.03-.02.07-.03.11-.04.06-.03.12-.04.19-.04.01-.01.03-.01.05-.01.09-.01.19-.02.29-.02.07-.01.15-.01.23-.01,3.05.03,6.11,0,9.17-.02,0-6.56.02-13.12-.02-19.68,0-1.19.38-1.6,1.57-1.57,3.01.06,6.03.02,9.05.01.01-6.55.05-13.1.01-19.65,0-.86.18-1.32.7-1.5.24.09.55.12.94.11,2.58-.08,5.17-.06,7.75,0Z"/>
        <path class="cls-1" d="m159.13,117.11c-.21-.1-.49-.13-.84-.12-2.58.06-5.17.08-7.74,0-.4-.01-.71.02-.95.13-.52-.19-.71-.66-.7-1.52.04-6.55,0-13.1-.01-19.65-3.02-.01-6.04-.05-9.06.01-1.18.03-1.57-.38-1.56-1.57.04-6.56.02-13.12.01-19.68-3.05-.01-6.11-.05-9.17-.02-.99,0-1.49-.23-1.47-1.36.06-2.72.05-5.44,0-8.17-.01-.99.35-1.35,1.34-1.33,2.68.04,5.35.05,8.03-.01,1.11-.02,1.52.34,1.5,1.48-.05,3.05.01,6.11.02,9.17,3.02,0,6.03.04,9.05-.02,1.19-.02,1.57.39,1.56,1.57-.04,6.56-.01,13.12-.01,19.68,3.01.02,6.03.07,9.04.02,1.12,0,1.62.27,1.61,1.52-.05,6.16-.04,12.33,0,18.5.01.77-.17,1.2-.65,1.37Z"/>
        <path class="cls-1" d="m127.65,169.06c-.01.38.04.66.16.87-.12-.2-.17-.48-.17-.85.05-2.73.04-5.45,0-8.18.06,2.72.05,5.43.01,8.16Z"/>
        <path class="cls-1" d="m138.48,169.39c-.05.71-.42,1.02-1.3,1.01.82-.02,1.21-.28,1.3-1.01Z"/>
        <path class="cls-1" d="m150.02,180.81c-.82.09-1.09.52-1.11,1.41,0-.88.21-1.36,1.11-1.41Z"/>
        <path class="cls-1" d="m170.19,212.68c.09.08.17.16.25.24h0s-.01.01-.01.01c-.08-.08-.16-.16-.24-.25Z"/>
        <path class="cls-1" d="m179.93,202.08c-.51,0-1.02,0-1.54,0,.41,0,.83,0,1.24-.02.11,0,.21,0,.3.01Z"/>
        <path class="cls-1" d="m159.86,213.02c-.16.17-.25.41-.29.73.03-.33.12-.56.29-.73Z"/>
        <path class="cls-1" d="m168.93,223.57c.16,0,.31,0,.44-.02-.13.02-.28.03-.44.03-3.06-.05-6.1,0-9.16.02h-.01c-.08-.08-.16-.17-.24-.25.09.08.17.16.25.24,3.05,0,6.11-.06,9.16-.02Z"/>
        <path class="cls-1" d="m180.81,86.95c0-.18,0-.35.02-.5v23.7c0-7.73,0-15.46-.02-23.2Z"/>
        <path class="cls-1" d="m189.84,149.14c-1.99-.07-3.99-.05-5.98-.03,1.99-.07,3.99-.05,5.98.03Z"/>
        <path class="cls-1" d="m191.66,86.26c-.1-.66-.38-1.01-.98-1.13.62.1.91.44.98,1.13Z"/>
        <path class="cls-1" d="m191.7,147.28c0,.05,0,.1-.01.15-.06-5.75-.02-11.5-.02-17.24v-6.94c0,8.01,0,16.02.03,24.03Z"/>
        <path class="cls-1" d="m221.39,85.09c-1.9.06-3.8.04-5.7.02,1.9.01,3.8.02,5.7-.02Z"/>
        <path class="cls-1" d="m223.56,86.23c-.1-.65-.39-.98-.99-1.1.62.1.92.43.99,1.1Z"/>
        <path class="cls-1" d="m127.65,224.46c-.02.17-.03.36-.02.57v.15c-.01-.28-.01-.52.02-.72Z"/>
        <path class="cls-1" d="m159.59,233.73c.08-.14.14-.31.16-.52-.02.21-.07.38-.16.52Z"/>
        <path class="cls-1" d="m159.77,223.59h0c0,1.85-.02,3.68-.02,5.52,0-1.83.01-3.67.01-5.51-.08-.08-.16-.17-.24-.25.09.08.17.16.25.24Z"/>
        <path class="cls-1" d="m202.09,150.33c.02,4.08.03,8.15.01,12.22,0-4,0-8.01-.02-12.01,0-.07,0-.14.01-.21Z"/>
        <path class="cls-1" d="m203.71,148.89c.59.01,1.17.02,1.76.02-.63,0-1.28,0-1.92,0-.11,0-.22,0-.32,0,.14-.02.3-.02.48-.02Z"/>
        <path class="cls-1" d="m212.98,149.12c0,.14-.01.28-.01.42v-.42h.01Z"/>
        <path class="cls-1" d="m127.63,41.09c.09-2.58.06-5.17.01-7.76-.02-1.05.36-1.42,1.42-1.41,6.22.03,12.44.03,18.67,0,1.06-.01,1.42.37,1.41,1.42-.04,3.06-.01,6.13-.01,9.19,3.05.01,6.1.06,9.15.02,1.09-.01,1.52.33,1.5,1.47-.06,3.05-.02,6.1-.01,9.15,3.05.01,6.1.06,9.16.01,1.12-.01,1.5.37,1.48,1.49-.04,3.06.01,6.11.02,9.16,2.73,0,5.45,0,8.17,0q2.43,0,2.43,2.36c.01,6.3.03,12.6.04,18.9-.08.08-.16.16-.24.24-3.01,0-6.02-.07-9.02,0-1.26.03-1.65-.39-1.64-1.64.05-6.54.02-13.08.02-19.61-3.05-.02-6.11-.07-9.16-.02-1.12.01-1.5-.37-1.49-1.49.05-3.06,0-6.11-.02-9.16-3,0-6-.06-9,.02-1.28.03-1.64-.43-1.62-1.66.06-3,0-6-.01-9-6.51,0-13.03-.03-19.54.02-1.3.01-1.77-.37-1.72-1.7Z"/>
        <path class="cls-1" d="m159.78,190.13v.07c.01.44-.05.77-.2.99-.04.07-.08.13-.14.18-.07.07-.16.12-.26.16-.06.03-.12.05-.19.07-.09.03-.19.04-.3.05-.13.02-.26.02-.41.02-3.05-.04-6.1.01-9.15.02,0,.95,0,1.89-.01,2.83-.01,2.12-.01,4.24.02,6.36.01.52-.08.88-.31,1.11-.03.04-.07.07-.11.08-.22.17-.55.23-.99.23-6.22-.03-12.45-.03-18.67,0-1.05.01-1.44-.36-1.42-1.42v-.04c.04-1.95.06-3.91.03-5.87,0-.61-.02-1.23-.04-1.84-.01-.21,0-.39.02-.56.09-.74.47-1.05,1.24-1.12.14-.02.3-.02.47-.02h.23c6.43.04,12.87.02,19.3.02,0-1.13.02-2.25.02-3.38.02-1.43.03-2.86.01-4.3,0-.44,0-.88-.01-1.32v-.23c.02-.89.29-1.32,1.11-1.41.07-.01.15-.02.24-.01.08-.01.17-.01.26-.01,2.1.06,4.2.04,6.3.03.58,0,1.16-.01,1.74-.01.85.02,1.2.37,1.21,1.22,0,.63-.01,1.25-.01,1.88-.03,2.07-.03,4.15.02,6.22Z"/>
        <path class="cls-1" d="m191.69,147.43c0,.2-.01.38-.03.54-.02.13-.05.25-.08.35-.11.32-.29.54-.58.67-.1.04-.2.07-.32.1-.06.01-.13.02-.2.03-.18.02-.4.03-.64.02-1.99-.08-3.99-.1-5.98-.03-.03-.01-.06-.01-.09,0-.63,0-1.25.01-1.88.01h-.82c-.01,6.3-.02,12.6-.04,18.9q0,2.36-2.43,2.36c-2.72,0-5.44,0-8.16.01-.02,3.05-.07,6.1-.02,9.16,0,1.12-.37,1.5-1.49,1.49-3.05-.05-6.11,0-9.16.01-.08-.08-.16-.16-.25-.24.02-3.05.07-6.1.03-9.16-.02-1.12.36-1.5,1.48-1.49,3.06.05,6.11,0,9.16-.02.01-6.53.04-13.07-.01-19.61,0-1.25.37-1.67,1.63-1.64,3,.06,6.01,0,9.02-.01v-62.43c.07-.81.35-1.23,1.07-1.35.21-.03.46-.04.75-.03.37.02.74.03,1.12.04.03.01.06.01.09,0,1.99.07,3.98.05,5.97-.03h.34c.14,0,.26,0,.37.02.05,0,.1.01.14.03.6.12.88.47.98,1.13.01.06.01.11.02.18.01.11.01.23.01.35-.06,5.75-.02,11.5-.02,17.24v26.16c0,5.74-.04,11.49.02,17.24Z"/>
        <path class="cls-1" d="m149.14,200.88c-.03-2.12-.02-4.24-.02-6.36-.01,2.12-.01,4.24.02,6.36Z"/>
        <path class="cls-1" d="m159.13,117.11c-.21.09-.49.13-.84.12-2.58-.06-5.17-.08-7.75,0-.39.01-.7-.02-.94-.11.24-.11.55-.14.95-.13,2.57.08,5.16.06,7.74,0,.35-.01.63.02.84.12Z"/>
        <path class="cls-1" d="m159.77,182.03c-.01-.85-.36-1.2-1.21-1.22h.96c.09.08.17.16.25.24v.98Z"/>
        <path class="cls-1" d="m159.78,190.13c-.05-2.07-.05-4.15-.02-6.22-.01,2.07-.02,4.15.02,6.22Z"/>
        <path class="cls-1" d="m171.6,202.07c2.12.03,4.24.03,6.36.02-2.12.03-4.24.02-6.36-.02Z"/>
        <path class="cls-1" d="m181.04,202.32v1.03c-.02-.84-.32-1.22-1.11-1.27h.87c.08.08.16.16.24.24Z"/>
        <path class="cls-1" d="m170.44,212.92h0s-.01.01-.01.01c-.08-.08-.16-.16-.24-.25.09.08.17.16.25.24Z"/>
      </g>
      <path class="cls-1" d="m106.59,1.28c-.04.52-.01,1.05-.01,1.58v23.85c.01,26.64.01,53.27.01,79.91v20.98c0,34.59,0,69.17-.01,103.75,0,.53-.03,1.06.01,1.58.06.93-.35,1.27-1.27,1.27-6.32-.02-12.64-.02-18.97,0-.94,0-1.25-.38-1.24-1.29.03-2.68-.03-5.36.02-8.04.02-1.01-.36-1.34-1.34-1.33-2.64.05-5.27-.02-7.91.03-1.05.02-1.44-.36-1.42-1.41.05-2.64-.01-5.27.03-7.91.02-.98-.31-1.36-1.32-1.34-2.59.05-5.17-.03-7.76.03-1.16.03-1.62-.33-1.59-1.54.08-2.44-.04-4.89.05-7.33.05-1.35-.31-1.88-1.75-1.81-2.39.11-4.79-.05-7.18.06-1.43.06-1.81-.48-1.76-1.83.09-2.43-.03-4.88.05-7.32.04-1.22-.41-1.57-1.58-1.54-2.53.07-5.08-.02-7.61.04-1.15.03-1.51-.39-1.48-1.5.05-2.59-.03-5.18.03-7.76.02-.97-.27-1.35-1.12-1.4-.09-.01-.19-.01-.29-.01-.7.02-1.4.02-2.1.02-1.48-.01-2.97,0-4.45,0h-1.15c-1.01.01-1.45-.27-1.54-1.08-.02-.14-.02-.31-.02-.49.02-.69.02-1.37.02-2.06.01-1.25,0-2.5,0-3.76v-.17c0-.51.01-1.02.02-1.53,0-.08,0-.16-.01-.24,0-.09,0-.18-.01-.26-.04-.8-.4-1.1-1.31-1.08-.17,0-.34.01-.51,0-1.09.02-2.18.02-3.27.02-.88-.01-1.76-.01-2.64,0-.5,0-.99,0-1.49.01-.11,0-.22,0-.31-.01-.65-.08-1-.38-1.11-1.05,0-.1,0-.22,0-.34,0-.43,0-.85,0-1.28v-.39c.02-1.08,0-2.17,0-3.25,0-.43,0-.85,0-1.28.01-.42.01-.84.03-1.27v-.05c.01-.3,0-.54-.04-.75-.02-.17-.07-.31-.15-.43-.02-.04-.05-.08-.08-.12-.02-.04-.06-.07-.09-.1-.14-.14-.34-.24-.6-.29-.05-.02-.11-.03-.17-.03-.06-.02-.12-.02-.19-.02-.13-.02-.27-.02-.43-.02-.62,0-1.25.02-1.87.02-3.97.03-7.94,0-11.91.02h-.74c-1.01-.01-2.01-.01-3.01-.01-.38,0-.68,0-.93-.01-.68-.11-.98-.46-1.08-1.15v-.02c-.01-.21-.01-.46-.01-.76v-81.39c0-.3,0-.55.01-.77H.04c.1-.7.4-1.05,1.08-1.16.25-.01.55-.01.93-.01,1.66,0,3.32,0,4.98,0,2.2,0,4.4,0,6.6,0,.98,0,1.96,0,2.94.01.18-.01.36-.01.53,0,.83,0,1.65.01,2.48.02.49.01.85-.04,1.11-.17.05-.02.09-.04.13-.07.05-.03.1-.07.15-.11.07-.06.13-.14.17-.22.03-.04.05-.08.06-.13.03-.04.04-.09.05-.14.02-.05.03-.1.04-.16.04-.21.05-.45.04-.75v-.05c-.02-.43-.02-.85-.03-1.27,0-.43,0-.85,0-1.28,0-1.08.03-2.17,0-3.26.01-.13,0-.26,0-.39,0-.43,0-.85,0-1.28,0-.13,0-.24,0-.34.11-.68.48-.98,1.18-1.05.07-.01.16-.02.24-.01.44.01.88.01,1.32.01.44,0,.88,0,1.32,0,1.66,0,3.32,0,4.98.01h.29c.91.02,1.27-.28,1.31-1.08.01-.08.02-.17.01-.26.01-.07.01-.15.01-.23-.01-.51-.02-1.01-.02-1.52-.01-.06-.01-.13,0-.19,0-1.25.01-2.5,0-3.76,0-.72,0-1.43-.02-2.15,0-.15,0-.29.02-.41.09-.78.52-1.06,1.48-1.07h.06c1.41.03,2.82.02,4.23.01.94.01,1.87.02,2.81.01.22,0,.44.01.66.01h.18c.93-.02,1.25-.4,1.23-1.4-.06-2.59.02-5.18-.03-7.76-.03-1.11.33-1.54,1.48-1.51,2.53.07,5.08-.03,7.61.04,1.17.03,1.62-.31,1.58-1.53-.08-2.44.04-4.89-.05-7.33-.05-1.35.33-1.88,1.76-1.82,2.39.1,4.79-.05,7.18.06,1.19.05,1.64-.3,1.73-1.17v-.02c.03-.19.03-.39.02-.62-.01-.36-.02-.73-.03-1.1v-.02c.01-.6,0-1.19-.01-1.79.01-1.42.04-2.84-.01-4.26v-.08c.01-1.06.31-1.51,1.16-1.61.13-.02.27-.02.43-.02h.27c1.97.07,3.95.03,5.93.03.52,0,1.04,0,1.56.01.26.01.47-.02.64-.07.05-.01.09-.02.13-.05.42-.17.56-.56.55-1.23,0-.75,0-1.5,0-2.26,0-1.45,0-2.89-.01-4.33,0-.43,0-.87-.01-1.31.01-.88.29-1.31,1.07-1.4.11,0,.22-.02.35-.02h.3c1.68.05,3.37.02,5.05.02h.3c.65,0,1.3.01,1.95.03.24.01.46,0,.64-.04.02,0,.04,0,.06,0,.6-.06.89-.35.93-.99.02-.07.02-.15.02-.24.01-.11.01-.22.01-.34-.01-.23-.02-.46-.02-.69-.01-1.11-.01-2.23-.01-3.34.01-.66.01-1.32.01-1.97,0-.6,0-1.19-.01-1.78,0-.07,0-.13.01-.19.07-.66.36-1,1.07-1.08.05,0,.1,0,.16,0h2.15c4.63.04,9.24.04,13.86,0,.99,0,1.97,0,2.96,0h.17s.02,0,.03,0c.75.1,1.01.49,1.07,1.21v.04Z"/>
      <path class="cls-1" d="m69.3,130.35c-.01.22-.01.47-.01.77v40.7c0-13.6-.01-27.19-.03-40.79,0-.26.01-.48.04-.68Z"/>
      <path class="cls-1" d="m70.38,214.44c-.87-.05-1.05-.25-1.08-1.15.1.69.4,1.04,1.08,1.15Z"/>
      <path class="cls-1" d="m76.29,129.17c-1.66,0-3.32,0-4.98,0-.38,0-.68,0-.93.01.2-.04.44-.05.72-.05,1.73.02,3.46.03,5.19.03Z"/>
      <path class="cls-1" d="m5.8,159.75c3.97-.02,7.94.01,11.91-.02-3.97.04-7.94.02-11.91.02Z"/>
      <path class="cls-1" d="m88.78,129.2c.5.01.88-.03,1.17-.16-.26.13-.62.18-1.11.17-.83-.01-1.65-.02-2.48-.02.81,0,1.62,0,2.42.01Z"/>
      <path class="cls-1" d="m90.56,121.21c0-.31-.02-.63-.03-.94-.01-.26,0-.49.03-.68,0,.1,0,.21,0,.34,0,.43,0,.85,0,1.28Z"/>
      <path class="cls-1" d="m21.3,167.32c0-1.08,0-2.17,0-3.25,0,1.08.03,2.17,0,3.25Z"/>
      <path class="cls-1" d="m21.29,160.72c.04.21.05.45.04.75.01-.29,0-.54-.04-.75Z"/>
      <path class="cls-1" d="m22.41,170.38c-.71-.05-1.05-.34-1.11-1.05.11.67.46.97,1.11,1.05Z"/>
      <path class="cls-1" d="m92.36,118.52c.31.01.63.02.94.02-.44,0-.88,0-1.32-.01.12-.02.25-.01.38-.01Z"/>
      <path class="cls-1" d="m99.6,118.56c-1.66-.02-3.32-.01-4.98-.01,1.66,0,3.32-.04,4.98.01Z"/>
      <path class="cls-1" d="m101.2,117.48c-.04.8-.4,1.1-1.31,1.08.87-.02,1.23-.34,1.31-1.08Z"/>
      <path class="cls-1" d="m31.95,171.7c.01.08.01.16.01.24-.01.51-.02,1.02-.02,1.53,0-.59,0-1.18.01-1.77Z"/>
      <path class="cls-1" d="m102.68,107.89c-.96.01-1.39.29-1.48,1.07.07-.82.52-1.1,1.48-1.07Z"/>
      <path class="cls-1" d="m41.18,181c.1,0,.2,0,.29.01-.8,0-1.59,0-2.39.01.7,0,1.4,0,2.1-.02Z"/>
      <path class="cls-1" d="m134.24,76c-.85.1-1.15.55-1.16,1.61v-.08c-.03-1.05.32-1.47,1.16-1.53Z"/>
      <path class="cls-1" d="m134.94,75.98c1.98.05,3.95.02,5.93.03-1.98,0-3.96.04-5.93-.03Z"/>
      <path class="cls-1" d="m144.79,65.37c-.78.09-1.06.52-1.07,1.4-.02-.93.28-1.34,1.07-1.4Z"/>
      <path class="cls-1" d="m150.49,65.37c-1.68,0-3.37.03-5.05-.02,1.68.03,3.37.02,5.05.02Z"/>
      <path class="cls-1" d="m153.05,65.38c.12,0,.23,0,.33-.02-.18.04-.4.05-.64.04-.65-.02-1.3-.03-1.95-.03.75,0,1.51,0,2.26.01Z"/>
      <path class="cls-1" d="m154.38,63.1c0,.23.01.46.02.69,0,.12,0,.23-.01.34v-.07c-.01-.32-.01-.64-.01-.96Z"/>
      <path class="cls-1" d="m155.45,54.74c-.71.08-1,.42-1.07,1.08.03-.71.32-1.05,1.07-1.08Z"/>
      <path class="cls-1" d="m157.76,54.73c4.62.02,9.24.02,13.86,0-4.62.04-9.23.04-13.86,0Z"/>
      <path class="cls-1" d="m175.85,55.95c-.06-.72-.32-1.11-1.07-1.21.77.03,1.11.38,1.07,1.21Z"/>
    </g>
  </g>
</svg>