<?xml version="1.0" encoding="UTF-8"?>
<svg id="Camada_2" data-name="Camada 2" xmlns="http://www.w3.org/2000/svg" viewBox="0 0 255.19 220.19">
  <defs>
    <style>
      .cls-1 {
        stroke-width: 0px;
      }
    </style>
  </defs>
  <g id="Camada_1-2" data-name="Camada 1">
    <g>
      <path class="cls-1" d="m30.27,123.98c5.14,7.49,9.72,14.17,14.29,20.85,1.03,1.51,2.06,3.03,3.04,4.57,1.38,2.17.8,3.63-1.8,3.64-10.99.05-22.02.85-32.94-.37-7.89-.88-12.62-6.37-12.7-14.28-.2-20.82-.22-41.65,0-62.47.09-8.94,6.46-14.84,15.43-14.9,14.33-.1,28.65-.12,42.98.03,3.75.04,6.67-1.14,9.54-3.47,21.45-17.43,42.98-34.76,64.49-52.11,1.17-.94,2.34-1.88,3.59-2.71,9.25-6.12,18.35-1.7,19.25,9.37.16,1.99.12,4,.12,5.99,0,61.47,0,122.94,0,184.41,0,1.83.05,3.67-.12,5.49-.44,4.7-2.02,8.9-6.6,11.01-4.93,2.28-9.53.96-13.49-2.38-5.6-4.72-11.04-9.62-16.51-14.5-28.8-25.74-57.59-51.49-86.4-77.23-.31-.27-.79-.36-2.17-.96Zm45.38-59.84c3.05.19,4.62-1.2,6.35-2.01,13.72-6.44,27.48-12.82,41.09-19.48,18.26-8.94,14.43-3.02,14.88-23.2.03-1.28.61-3.05-.57-3.75-1.58-.93-2.69.82-3.78,1.69-12.23,9.78-24.42,19.61-36.6,29.44-6.94,5.6-13.86,11.22-21.37,17.31Z"/>
      <path class="cls-1" d="m164.98,109.52c0-11,.11-21.99-.05-32.99-.07-4.4,1.36-5.14,5.34-3.6,14.51,5.64,24.89,20.04,25.2,35.39.35,17.27-8.77,31.84-23.9,38.18-5.63,2.36-6.56,1.75-6.58-4.49-.03-10.83,0-21.66,0-32.49Zm21.59-8c-2.19-7.48-6.24-13.58-12.41-18.18-.77-.58-1.54-1.53-2.6-1.05-1.31.6-.97,1.97-1,3.09-.04,1.77.51,3.32,2.1,4.25,5.35,3.14,9.42,7.72,13.91,11.89Z"/>
      <path class="cls-1" d="m255.19,109.86c-2.41,38.53-18.6,68.61-53.2,87.48-1.2.66-2.78,2.39-3.91.69-1.31-1.98,1.05-2.84,2.27-3.71,11.82-8.4,21.74-18.6,29.32-30.99,11.28-18.44,16.83-38.64,15.01-60.07-2.71-31.84-17.13-57.68-43.18-76.7-1.49-1.08-4.62-2.23-3.41-4.16,1.6-2.55,3.78.24,5.44,1.18,30.79,17.35,47.06,44.11,50.9,78.88.27,2.48.52,4.97.77,7.4Z"/>
      <path class="cls-1" d="m222.49,114.89c-1.05,22.02-12.55,42.45-36.34,55.42-1.18.64-2.77,2.36-3.85.52-.97-1.64,1.03-2.49,2.19-3.37,25.4-19.42,35.26-47.79,26.48-77.9-4.21-14.43-12.48-26.41-24.58-35.57-.53-.4-1.15-.71-1.61-1.18-1.06-1.09-3.57-1.79-2.26-3.71,1.06-1.55,2.71.09,3.95.76,22.69,12.23,36.08,34.68,36.04,65.04Z"/>
    </g>
  </g>
</svg>